<svg width="256" height="256" xmlns="http://www.w3.org/2000/svg">
 <title>fac</title>

 <g>
  <title>Layer 1</title>
  <ellipse opacity="0.9" stroke-width="0" ry="90" rx="90" id="svg_1" cy="100" cx="100" stroke="#000" fill="#18dcff"/>
  <ellipse opacity="0.9" stroke-width="0" ry="90" rx="90" id="svg_2" cy="156" cx="156" stroke="#000" fill="#fffa65"/>
  <path stroke="#ffffff" id="svg_4" d="m93.58412,203.52358c-7.55584,-1.10334 -14.57399,-7.10454 -13.14859,-14.10996c0.72143,-7.69053 7.78764,-13.88011 14.89733,-17.95819c9.46207,-5.57265 22.39936,-7.64278 32.82674,-2.83647c0.61098,-38.76504 0.26277,-77.53978 0.35533,-116.3092c6.57557,-1.37738 4.44948,6.07038 5.94289,9.51463c1.42503,10.12797 9.27737,18.07503 17.09345,25.17137c9.69713,8.91977 19.9941,18.37742 23.14602,30.73517c3.44181,14.33769 -2.06048,29.0053 -9.201,41.85461c-0.51706,4.11808 -9.24874,10.07599 -5.08866,2.63441c7.00484,-12.73012 12.79175,-27.39098 8.0105,-41.4876c-4.55314,-14.06577 -18.74494,-25.81279 -35.6393,-27.91913c-0.10919,29.70092 0.26588,59.40746 -0.40039,89.10363c-1.6609,8.74745 -10.4434,15.23798 -19.25069,18.94413c-6.07305,2.28748 -12.92732,3.6715 -19.54362,2.66261l-0.00001,-0.00001z" stroke-width="5" fill="#ffffff"/>
 </g>
</svg>